PathFileType	4	(X/Y/Z)	C:\Users\Caesar\Desktop\毕业设计\1-评估老年人缺少的力\Data\s4\S4_T_02_fixed.trc	Maker trajectories (.TRC) by Lee-Son ToolBox																																																																																				
DataRate	CameraRate	NumFrames	NumMarkers	Units	OrigDataRate	OrigDataStartFrame	OrigNumFrames																																																																																	
100	100	11	29	mm	100	876	1000																																																																																	
Frame#	Time	Unlabeled27			Unlabeled48			Unlabeled26			HEAD			C7			T10			STERN			LSHO			LELB			RSHO			RELB			LASI			RASI			LPSI			RPSI			LHIP			LTHI			LKNE			LTIB			LANK			LHEE			LTOE			RHIP			RTHI			RKNE			RTIB			RANK			RHEE			RTOE		
		X1	Y1	Z1	X2	Y2	Z2	X3	Y3	Z3	X4	Y4	Z4	X5	Y5	Z5	X6	Y6	Z6	X7	Y7	Z7	X8	Y8	Z8	X9	Y9	Z9	X10	Y10	Z10	X11	Y11	Z11	X12	Y12	Z12	X13	Y13	Z13	X14	Y14	Z14	X15	Y15	Z15	X16	Y16	Z16	X17	Y17	Z17	X18	Y18	Z18	X19	Y19	Z19	X20	Y20	Z20	X21	Y21	Z21	X22	Y22	Z22	X23	Y23	Z23	X24	Y24	Z24	X25	Y25	Z25	X26	Y26	Z26	X27	Y27	Z27	X28	Y28	Z28	X29	Y29	Z29
																																																																																								
876	8.75	764.841	168.453	1090.77	774.195	168.749	1794.96	214.28	171.392	1098.34	583.448	1668.1	1428.95	383.554	1505.14	1465.41	329.937	1371.89	1466.66	543.166	1395.9	1463.02	452.131	1502.33	1323.6	562.771	1238.48	1202.73	459.204	1492.11	1624.13	579.846	1203.28	1714.89	469.733	1049.73	1325.42	507.54	1038.38	1561.02	285.035	1109.05	1412.13	303.499	1108.94	1536.17	372.377	1005.27	1288.45	445.025	772.5	1308.37	446.289	632.509	1323.34	273.531	451.162	1328.3	177.624	400.088	1333.54	121.217	397.634	1332.41	250.29	231.88	1369.91	435.071	1007.64	1624.01	476.621	864.731	1596.78	438.886	625.578	1574.93	434.171	507.727	1561.73	343.882	279.17	1528.59	298.692	246.285	1522.71	513.304	224.45	1499.12
877	8.76	764.844	168.45	1090.76	774.196	168.76	1794.96	214.26	171.402	1098.33	582.242	1669.32	1429.11	382.262	1506.42	1466.01	328.944	1373.06	1467.67	541.907	1397.58	1463.49	450.667	1503.33	1324.01	563.47	1240.36	1204.11	458.485	1493.72	1624.7	580.33	1205.26	1714.55	470.116	1051.71	1326.29	506.685	1039.29	1562.05	284.837	1110.35	1411.97	302.735	1109.95	1536.07	373.165	1007.19	1288.41	450.196	775.452	1308.01	454.463	635.559	1323.31	286.504	449.23	1328.42	191.965	395.173	1333.94	135.571	389.816	1332.85	273.596	231.202	1369.11	433.645	1008.25	1624.37	473.089	864.771	1596.88	430.528	625.984	1575.74	424.763	508.443	1562.45	333.725	280.203	1528.83	288.353	247.745	1522.93	502.688	223.96	1499.33
878	8.77	764.85	168.444	1090.77	774.196	168.774	1794.96	214.249	171.415	1098.3	581.007	1670.4	1429.26	380.982	1507.54	1466.54	327.922	1374.09	1468.58	540.733	1399.07	1463.92	449.232	1504.17	1324.37	564.12	1242.03	1205.44	457.757	1495.16	1625.21	580.767	1207.09	1714.21	470.392	1053.47	1327.12	505.704	1039.99	1563.01	284.566	1111.51	1411.79	301.87	1110.83	1535.94	373.837	1008.95	1288.33	455.102	778.356	1307.59	462.31	638.601	1323.17	299.745	446.962	1328.48	206.816	389.733	1334.33	150.595	381.396	1333.31	297.389	230.537	1368.34	432.092	1008.73	1624.71	469.407	864.789	1596.96	422.177	626.473	1576.57	415.381	509.217	1563.19	323.574	281.312	1529.12	278.021	249.332	1523.21	492.04	223.467	1499.52
879	8.78	764.861	168.436	1090.77	774.196	168.788	1794.96	214.252	171.426	1098.28	579.756	1671.32	1429.38	379.724	1508.49	1467.01	326.877	1375	1469.39	539.672	1400.38	1464.32	447.845	1504.82	1324.67	564.704	1243.47	1206.71	457.022	1496.43	1625.66	581.137	1208.73	1713.86	470.555	1055.02	1327.91	504.609	1040.49	1563.91	284.222	1112.51	1411.58	300.908	1111.59	1535.78	374.391	1010.54	1288.23	459.709	781.18	1307.13	469.791	641.605	1322.93	313.251	444.388	1328.47	222.202	383.837	1334.67	166.333	372.483	1333.75	321.563	229.929	1367.58	430.434	1009.08	1625.03	465.611	864.768	1597	413.881	627.029	1577.39	406.064	510.025	1563.97	313.421	282.479	1529.43	267.689	251.001	1523.54	481.355	222.971	1499.7
880	8.79	764.877	168.425	1090.78	774.196	168.802	1794.95	214.269	171.434	1098.26	578.504	1672.06	1429.48	378.497	1509.26	1467.4	325.812	1375.75	1470.07	538.744	1401.48	1464.7	446.52	1505.3	1324.92	565.204	1244.69	1207.91	456.281	1497.49	1626.03	581.423	1210.17	1713.53	470.602	1056.34	1328.66	503.411	1040.78	1564.73	283.801	1113.36	1411.34	299.853	1112.21	1535.6	374.826	1011.95	1288.13	463.985	783.896	1306.63	476.857	644.536	1322.62	327.014	441.55	1328.42	238.134	377.559	1334.96	182.818	363.188	1334.14	346.03	229.421	1366.85	428.689	1009.3	1625.35	461.747	864.687	1597.01	405.704	627.623	1578.15	396.857	510.835	1564.75	303.26	283.678	1529.74	257.353	252.713	1523.88	470.631	222.481	1499.89
881	8.8	764.899	168.413	1090.8	774.195	168.816	1794.95	214.296	171.438	1098.24	577.264	1672.62	1429.56	377.31	1509.85	1467.7	324.73	1376.36	1470.64	537.949	1402.39	1465.06	445.265	1505.58	1325.13	565.612	1245.65	1209.02	455.536	1498.36	1626.33	581.618	1211.41	1713.2	470.536	1057.43	1329.4	502.119	1040.88	1565.49	283.294	1114.03	1411.08	298.712	1112.68	1535.4	375.146	1013.16	1288.01	467.905	786.478	1306.1	483.46	647.355	1322.27	341.017	438.498	1328.32	254.617	370.977	1335.18	200.06	353.631	1334.46	370.714	229.061	1366.13	426.873	1009.37	1625.65	457.864	864.52	1596.97	397.714	628.218	1578.82	387.81	511.612	1565.51	293.091	284.888	1530.04	247.007	254.436	1524.2	459.865	222.008	1500.09
882	8.81	764.924	168.4	1090.83	774.194	168.829	1794.95	214.327	171.435	1098.22	576.052	1672.99	1429.61	376.169	1510.26	1467.92	323.632	1376.8	1471.09	537.269	1403.08	1465.39	444.085	1505.68	1325.28	565.92	1246.36	1210.02	454.789	1499	1626.56	581.724	1212.42	1712.87	470.369	1058.3	1330.11	500.744	1040.77	1566.22	282.698	1114.52	1410.8	297.496	1112.99	1535.19	375.353	1014.16	1287.89	471.458	788.895	1305.54	489.554	650.021	1321.91	355.231	435.292	1328.17	271.646	364.181	1335.31	218.046	343.928	1334.71	395.544	228.903	1365.42	424.999	1009.3	1625.94	454.01	864.245	1596.88	389.979	628.773	1579.37	378.972	512.322	1566.21	282.912	286.091	1530.3	236.646	256.149	1524.5	449.054	221.562	1500.3
883	8.82	764.949	168.387	1090.85	774.191	168.839	1794.94	214.357	171.429	1098.21	574.883	1673.16	1429.63	375.079	1510.49	1468.07	322.524	1377.08	1471.42	536.669	1403.53	1465.7	442.981	1505.58	1325.39	566.129	1246.81	1210.89	454.041	1499.41	1626.72	581.748	1213.2	1712.55	470.114	1058.93	1330.82	499.296	1040.47	1566.91	282.01	1114.82	1410.5	296.216	1113.11	1534.97	375.449	1014.94	1287.77	474.637	791.111	1304.96	495.107	652.494	1321.57	369.618	431.999	1327.97	289.209	357.271	1335.35	236.741	334.197	1334.87	420.456	229.001	1364.72	423.079	1009.07	1626.2	450.227	863.844	1596.74	382.548	629.247	1579.79	370.376	512.932	1566.82	272.722	287.278	1530.52	226.269	257.835	1524.75	438.198	221.147	1500.53
884	8.83	764.971	168.376	1090.88	774.188	168.848	1794.94	214.382	171.421	1098.2	573.771	1673.14	1429.61	374.045	1510.52	1468.16	321.409	1377.18	1471.64	536.107	1403.72	1465.98	441.954	1505.29	1325.44	566.238	1247	1211.62	453.296	1499.59	1626.81	581.702	1213.72	1712.23	469.783	1059.34	1331.5	497.79	1039.99	1567.57	281.235	1114.94	1410.17	294.886	1113.04	1534.72	375.439	1015.5	1287.65	477.437	793.087	1304.36	500.102	654.745	1321.25	384.146	428.68	1327.7	307.288	350.348	1335.28	256.101	324.546	1334.94	445.401	229.412	1364.02	421.126	1008.66	1626.44	446.541	863.305	1596.56	375.439	629.61	1580.09	362.036	513.421	1567.3	262.523	288.445	1530.69	215.873	259.486	1524.96	427.297	220.765	1500.76
885	8.84	764.988	168.367	1090.9	774.184	168.857	1794.94	214.396	171.414	1098.19	572.725	1672.92	1429.56	373.068	1510.36	1468.18	320.298	1377.1	1471.75	535.537	1403.64	1466.23	441.002	1504.82	1325.45	566.246	1246.95	1212.19	452.555	1499.53	1626.84	581.591	1213.98	1711.91	469.388	1059.51	1332.13	496.24	1039.32	1568.2	280.38	1114.87	1409.82	293.519	1112.77	1534.44	375.327	1015.83	1287.52	479.857	794.786	1303.75	504.535	656.744	1320.94	398.787	425.391	1327.36	325.857	343.51	1335.13	276.074	315.082	1334.92	470.336	230.191	1363.34	419.16	1008.08	1626.62	442.963	862.627	1596.33	368.639	629.847	1580.29	353.941	513.781	1567.67	252.313	289.592	1530.83	205.461	261.096	1525.13	416.353	220.414	1501.01
886	8.85	765	168.36	1090.91	774.179	168.867	1794.94	214.399	171.405	1098.19	571.752	1672.49	1429.46	372.152	1510.01	1468.14	319.199	1376.84	1471.77	534.916	1403.27	1466.45	440.125	1504.18	1325.4	566.152	1246.65	1212.57	451.817	1499.23	1626.82	581.42	1213.98	1711.61	468.937	1059.44	1332.72	494.668	1038.48	1568.78	279.462	1114.6	1409.45	292.13	1112.31	1534.12	375.122	1015.92	1287.39	481.899	796.174	1303.12	508.407	658.465	1320.64	413.519	422.182	1326.97	344.885	336.852	1334.88	296.61	305.908	1334.82	495.219	231.385	1362.68	417.205	1007.32	1626.74	439.49	861.812	1596.07	362.1	629.957	1580.42	346.056	514.017	1567.93	242.093	290.724	1530.93	195.034	262.665	1525.29	405.371	220.085	1501.25
